# xmcd CD database file
#
# Track frame offsets:
#	150
#	46980
#	83240
#	112960
#	150527
#	187732
#
# Disc length: 3012 seconds
#
# Revision: 3
# Processed by: cddbd v1.5.2PL0 Copyright (c) Steve Scherf et al.
# Submitted via: CDex 1.70beta2
#
DISCID=3a0bc206
DTITLE=Kenny Drew Trio - Plays Standards Live at the Blue Note Osaka (disc1)
DYEAR=1992
DGENRE=Jazz
TTITLE0=I'm old fashioned
TTITLE1=Ornithology
TTITLE2=It never entered my mind
TTITLE3=Besame mucho
TTITLE4=Don't explain
TTITLE5=If I were a ball
EXTD=YEAR: 1992
EXTT0=
EXTT1=
EXTT2=
EXTT3=
EXTT4=
EXTT5=
PLAYORDER=
